<?xml version="1.0" encoding="UTF-8"?>
<svg width="154px" height="39px" viewBox="0 0 154 39" version="1.1" xmlns="http://www.w3.org/2000/svg" xmlns:xlink="http://www.w3.org/1999/xlink">
    <!-- Generator: Sketch 49.2 (51160) - http://www.bohemiancoding.com/sketch -->
    <title>Slice 1</title>
    <desc>Created with Sketch.</desc>
    <defs></defs>
    <g id="Page-1" stroke="none" stroke-width="1" fill="none" fill-rule="evenodd">
        <g id="coup" fill="#1B1C29" fill-rule="nonzero">
            <path d="M140.691597,28.4708439 C140.691597,28.4708439 135.748104,28.4708439 135.748104,28.4708439 C135.328337,28.4708439 134.988159,28.8192006 134.988159,29.2499928 C134.988159,29.2499928 134.988159,37.0507886 134.988159,37.0507886 C134.988159,37.912373 134.307803,38.6104159 133.466985,38.6104159 C133.466985,38.6104159 125.101172,38.6104159 125.101172,38.6104159 C124.260354,38.6104159 123.579998,37.912373 123.579998,37.0507886 C123.579998,37.0507886 123.579998,2.72968022 123.579998,2.72968022 C123.579998,1.86809582 124.260354,1.1700529 125.101172,1.1700529 C125.101172,1.1700529 127.396411,1.1700529 127.396411,1.1700529 L134.988159,1.1700529 C134.988159,1.1700529 140.524718,1.1700529 140.524718,1.1700529 C147.863578,1.1700529 153.945706,7.18917728 153.999621,14.7160744 C154.05482,22.3028037 148.075387,28.4708439 140.691597,28.4708439 Z M99.6250422,38.9999904 C89.1257344,38.9999904 82.1347538,31.4398531 82.1347538,20.6700481 C82.1347538,16.0629648 82.1334701,6.48448633 82.1334701,2.72835061 C82.1334701,1.86676621 82.8138263,1.1700529 83.6546438,1.1700529 C87.162971,1.1700529 95.8150476,1.1700529 99.6250422,1.1700529 C104.116677,1.1700529 112.234738,1.1700529 115.594157,1.1700529 C116.434974,1.1700529 117.115331,1.86809582 117.115331,2.72968022 C117.115331,6.63207255 117.116614,16.7809518 117.116614,20.6700481 C117.116614,31.4398531 110.125634,38.9999904 99.6250422,38.9999904 Z M57.8242157,38.9999904 C47.3236242,38.9999904 38.8114699,30.2698002 38.8114699,19.4999952 C38.8114699,8.73019012 47.3236242,0 57.8242157,0 C68.3235235,0 76.8356778,8.73019012 76.8356778,19.4999952 C76.8356778,30.2698002 68.3235235,38.9999904 57.8242157,38.9999904 Z M24.2839401,18.0600324 C23.4726475,18.2834061 22.9912634,19.1383425 23.2082072,19.9706756 C23.2082072,19.9706756 27.2980464,35.6227922 27.2980464,35.6227922 C27.4944511,36.3740194 27.120897,37.1611459 26.4225692,37.4642959 C24.1401668,38.4548521 21.6292674,39.0026496 18.99385,38.9999904 C8.58953533,38.9906831 0.061976748,30.2910739 0.000359585308,19.6196597 C-0.0638249592,8.7953408 8.47271946,0 19.0131054,0 C27.2402803,0 33.6240751,5.53115914 36.1927405,13.055397 C36.4841384,13.9103334 36.0014706,14.8383981 35.1478161,15.0737383 C35.1478161,15.0737383 24.2839401,18.0600324 24.2839401,18.0600324 Z" id="COUP"></path>
        </g>
    </g>
</svg>