<svg xmlns="http://www.w3.org/2000/svg" width="154" height="48" viewBox="0 0 154 48">
    <g fill="none" fill-rule="evenodd">
        <path d="M0 0h154v48H0z"/>
        <path fill="#002937" fill-rule="nonzero" d="M.544.308h8.255v14.815c.673-1.039 1.59-1.841 2.753-2.407 1.161-.565 2.476-.848 3.945-.848 2.72 0 4.776.848 6.167 2.546 1.391 1.697 2.087 4.18 2.087 7.453v14.4h-8.256V23.426c0-2.813-1.055-4.219-3.165-4.219-1.132 0-2.002.39-2.613 1.17-.613.78-.918 1.905-.918 3.37v12.521H.544V.308zM40.606 37c-2.873 0-4.961-.498-7.101-1.49-2.14-.993-3.8-2.431-4.978-4.311-1.176-1.88-1.764-4.135-1.764-6.765 0-2.384.504-4.524 1.513-6.42 1.008-1.895 2.454-3.395 4.334-4.495 1.88-1.101 4.058-1.651 6.535-1.651 3.546 0 6.367 1.063 8.462 3.188 2.094 2.124 3.14 5.007 3.14 8.644 0 1.071-.091 2.02-.273 2.843H34.88c.428 1.376.968 2.298 2.146 2.956 1.177.658 2.632 1.08 4.68 1.08 1.315 0 2.644-.138 3.991-.413 1.345-.274 2.057-.428 3.096-.919l1.98 5.66c-1.255.58-3.475 1.329-5.111 1.634a27.35 27.35 0 0 1-5.056.46zm2.438-15.41c-.123-1.222-.543-2.185-1.261-2.888-.718-.704-1.644-1.054-2.774-1.054-2.324 0-3.746 1.316-4.265 3.944h8.3v-.001z"/>
        <path fill="#002937" fill-rule="nonzero" d="M56.263 47.915c-1.008 0-1.995-.1-2.958-.298-.964-.2-2.259-.612-2.84-.947l2.299-6.57c.917.295 1.236.34 2.49.34 1.099 0 1.97-.284 2.613-.85.641-.564 1.268-1.58 1.88-3.048l.733-1.697-9.167-22.242h8.709l4.86 13.896 4.357-13.896H78L68.094 37.23c-1.163 2.874-2.286 5.068-3.37 6.581-1.085 1.514-2.286 2.575-3.6 3.188-1.315.61-2.934.916-4.861.916zM116.831 37c-2.05 0-3.883-.511-5.504-1.536-1.62-1.025-2.904-2.485-3.852-4.38-.949-1.895-1.422-4.08-1.422-6.558 0-2.322.458-4.441 1.376-6.351.917-1.91 2.216-3.44 3.897-4.587 1.68-1.146 3.592-1.72 5.732-1.72 1.407 0 2.706.306 3.899.917a7.239 7.239 0 0 1 2.843 2.568l.092-2.751h7.75v23.663h-7.75l-.092-2.705c-.703 1.101-1.659 1.948-2.866 2.546-1.206.596-2.574.894-4.103.894zm2.248-7.338c1.406 0 2.552-.488 3.439-1.467.887-.979 1.33-2.232 1.33-3.761 0-1.527-.443-2.782-1.33-3.76-.887-.978-2.033-1.468-3.44-1.468-1.405 0-2.56.49-3.461 1.467-.903.98-1.353 2.232-1.353 3.761s.45 2.782 1.353 3.76c.9.98 2.056 1.468 3.462 1.468zM136.307 12.602h8.025l.092 3.53c.58-1.283 1.376-2.27 2.386-2.958 1.01-.687 2.186-1.03 3.53-1.03 1.04 0 2.63.387 3.395.723l-1.927 7.356c-.82-.274-1.36-.376-2.431-.376-1.59 0-2.79.527-3.6 1.583-.81 1.054-1.215 2.623-1.215 4.701v10.136h-8.255V12.602zM98.34 29.57c-1.897 0-3.378-.45-4.449-1.352-1.07-.9-1.605-2.163-1.605-3.784 0-1.589.527-2.843 1.582-3.76 1.054-.917 2.499-1.376 4.334-1.376 1.45 0 3.194.337 4.57.769l2.25-6.434c-.94-.466-2.091-.858-3.473-1.17a20.021 20.021 0 0 0-4.403-.503c-2.6 0-4.891.55-6.88 1.651-1.988 1.1-3.515 2.6-4.586 4.495-1.07 1.896-1.605 4.035-1.605 6.42 0 2.538.557 4.74 1.672 6.604 1.116 1.866 2.661 3.295 4.633 4.288 1.971.994 4.242 1.49 6.81 1.49 1.497 0 2.973-.176 4.425-.527a15.243 15.243 0 0 0 3.173-1.127l-2.196-6.362c-1.407.401-2.978.679-4.252.679z"/>
        <path fill="#00CEA5" fill-rule="nonzero" d="M152.648 40.688v6.572h-67.78v-6.572z"/>
    </g>
</svg>
