<?xml version="1.0" standalone="no"?>
<!DOCTYPE svg PUBLIC "-//W3C//DTD SVG 20010904//EN"
 "http://www.w3.org/TR/2001/REC-SVG-20010904/DTD/svg10.dtd">
<svg version="1.0" xmlns="http://www.w3.org/2000/svg"
 width="2526.000000pt" height="595.000000pt" viewBox="0 0 2526.000000 595.000000"
 preserveAspectRatio="xMidYMid meet">
<metadata>
Created by potrace 1.15, written by Peter Selinger 2001-2017
</metadata>
<g transform="translate(0.000000,595.000000) scale(0.100000,-0.100000)"
fill="#000000" stroke="none">
<path d="M1957 2998 c-263 -810 -478 -1476 -477 -1480 0 -5 63 -8 139 -8 l139
0 16 48 c8 26 166 511 350 1077 184 567 389 1199 456 1405 66 206 125 387 130
403 l9 27 -142 0 -142 0 -478 -1472z"/>
<path d="M2905 4458 c-12 -34 -955 -2940 -955 -2944 0 -2 64 -3 141 -2 l142 3
406 1250 c224 688 409 1256 412 1264 3 8 20 -69 39 -172 l33 -186 -308 -948
c-170 -521 -327 -1008 -351 -1080 l-42 -133 142 0 141 0 260 800 c142 439 260
798 261 797 4 -4 64 -342 64 -361 0 -10 -88 -289 -195 -620 -107 -330 -195
-604 -195 -608 0 -5 63 -8 139 -8 l139 0 101 308 c55 169 103 320 107 335 3
15 8 27 9 25 2 -2 29 -140 59 -308 31 -168 59 -317 62 -333 l6 -27 139 0 c81
0 139 4 139 10 0 12 -517 2827 -532 2898 l-11 52 -174 0 c-130 0 -175 -3 -178
-12z"/>
<path d="M3454 4428 c7 -24 132 -690 277 -1480 l264 -1438 137 0 c131 0 138 1
138 20 0 21 -527 2893 -536 2923 -5 15 -21 17 -149 17 l-143 0 12 -42z"/>
<path d="M3920 4463 c0 -5 5 -24 10 -44 6 -20 127 -672 270 -1450 143 -778
262 -1424 265 -1436 5 -23 8 -23 146 -23 l141 0 -6 27 c-3 16 -125 678 -271
1472 -146 793 -268 1447 -271 1452 -6 11 -284 12 -284 2z"/>
<path d="M4394 4454 c4 -9 11 -35 16 -58 10 -41 530 -2868 530 -2880 0 -4 64
-5 142 -4 l142 3 368 1450 c202 798 370 1462 373 1478 l7 27 -141 0 c-124 0
-140 -2 -145 -17 -3 -10 -134 -526 -291 -1148 -157 -621 -287 -1133 -288
-1137 -1 -4 -94 493 -206 1105 -113 611 -209 1131 -214 1155 l-9 42 -145 0
c-130 0 -144 -2 -139 -16z"/>
<path d="M6160 4463 c0 -3 -167 -664 -370 -1467 -204 -804 -370 -1467 -370
-1473 0 -10 35 -13 140 -13 77 0 140 3 140 6 0 8 678 2689 720 2847 l29 107
-145 0 c-79 0 -144 -3 -144 -7z"/>
<path d="M6635 4458 c-6 -18 -745 -2935 -745 -2942 0 -3 63 -6 139 -6 124 0
140 2 145 18 3 9 170 667 371 1462 201 795 368 1453 371 1463 5 16 -6 17 -136
17 -103 0 -142 -3 -145 -12z"/>
<path d="M7101 4433 c-5 -21 -173 -681 -372 -1468 -199 -786 -364 -1436 -366
-1442 -4 -10 28 -13 138 -13 l144 0 373 1473 c205 809 372 1475 372 1480 0 4
-63 7 -140 7 l-139 0 -10 -37z"/>
<path d="M8140 2990 l0 -1480 385 0 385 0 2 843 3 843 484 -843 483 -843 379
0 379 0 0 1480 0 1480 -380 0 -380 0 -2 -843 -3 -843 -482 840 -482 841 -385
3 -386 2 0 -1480z"/>
<path d="M11040 2990 l0 -1480 1030 0 1030 0 0 310 0 310 -650 0 -650 0 0 300
0 300 550 0 550 0 0 300 0 300 -550 0 -550 0 0 260 0 260 655 0 655 0 0 310 0
310 -1035 0 -1035 0 0 -1480z"/>
<path d="M13389 4433 c10 -21 191 -348 401 -728 210 -379 382 -692 383 -695 1
-3 -182 -336 -408 -739 -225 -404 -411 -740 -413 -748 -3 -11 75 -13 435 -13
l439 0 230 474 c126 260 231 472 234 469 3 -2 107 -214 231 -471 l225 -467
443 -3 c369 -2 442 0 438 11 -3 8 -183 331 -400 718 -216 387 -401 718 -410
736 l-17 31 386 699 c212 384 394 713 405 731 l18 32 -440 -2 -440 -3 -214
-450 c-119 -247 -219 -453 -223 -457 -4 -4 -107 199 -227 452 l-220 460 -438
0 -437 0 19 -37z"/>
<path d="M16260 3472 c0 -638 4 -1028 11 -1082 51 -411 288 -709 668 -839 292
-100 683 -106 975 -14 321 100 542 307 642 601 64 186 64 188 64 1315 l0 1017
-380 0 -379 0 -4 -1017 c-3 -937 -5 -1023 -21 -1086 -22 -83 -78 -169 -136
-208 -83 -56 -215 -79 -339 -60 -186 29 -289 135 -321 333 -6 40 -10 427 -10
1051 l0 987 -385 0 -385 0 0 -998z"/>
<path d="M19010 2990 l0 -1480 385 0 385 0 0 500 0 500 170 0 170 0 250 -500
250 -500 410 0 410 0 0 21 c0 18 -170 356 -507 1005 l-94 182 65 36 c186 104
325 262 386 440 56 164 67 488 21 646 -98 334 -385 551 -814 614 -87 13 -223
16 -796 16 l-691 0 0 -1480z m1330 844 c156 -46 233 -160 233 -344 0 -207 -98
-324 -293 -350 -41 -5 -171 -10 -287 -10 l-213 0 0 360 0 360 253 0 c202 0
264 -3 307 -16z"/>
<path d="M21710 2990 l0 -1480 1030 0 1030 0 0 310 0 310 -650 0 -650 0 0 300
0 300 550 0 550 0 0 300 0 300 -550 0 -550 0 0 260 0 260 655 0 655 0 0 310 0
310 -1035 0 -1035 0 0 -1480z"/>
</g>
</svg>
