<svg xmlns="http://www.w3.org/2000/svg" viewBox="0 0 399 115.07"><defs><style>.cls-1{fill:#fff;}.cls-2{fill:none;stroke:#fff;stroke-miterlimit:10;}</style></defs><title>opensc2-whitelogo</title><g id="Layer_2" data-name="Layer 2"><g id="Layer_1-2" data-name="Layer 1"><path class="cls-1" d="M146.58,1.57H105.24a2.39,2.39,0,0,0-2.4,2.4V109.7a2.4,2.4,0,0,0,2.4,2.4h5.46a2.4,2.4,0,0,0,2.4-2.4V13.45A2.41,2.41,0,0,1,115.51,11H146c14.37,0,24,9.16,24,22.9s-9.63,22.9-24,22.9H125a2.39,2.39,0,0,0-2.4,2.4V63.9a2.4,2.4,0,0,0,2.4,2.41h21.6c19.42,0,33.63-13.58,33.63-32.37S166,1.57,146.58,1.57Z"/><path class="cls-1" d="M276.52,8.64V4a2.39,2.39,0,0,0-2.4-2.4h-71a2.39,2.39,0,0,0-2.4,2.4V109.7a2.4,2.4,0,0,0,2.4,2.4h71a2.4,2.4,0,0,0,2.4-2.4V105a2.4,2.4,0,0,0-2.4-2.41H213.55a2.39,2.39,0,0,1-2.4-2.4V66.31h0V42.68h0V13.45a2.4,2.4,0,0,1,2.4-2.41h60.57A2.39,2.39,0,0,0,276.52,8.64Z"/><rect class="cls-1" x="220.6" y="50.36" width="42.66" height="9" rx="2.4" ry="2.4"/><path class="cls-1" d="M396,1.57H363.39A2.4,2.4,0,0,0,361,4V84.36a2.4,2.4,0,0,1-4.49,1.19L309.57,2.79a2.38,2.38,0,0,0-2.09-1.22H301a2.39,2.39,0,0,0-2.4,2.4V109.7a2.4,2.4,0,0,0,2.4,2.4h5.46a2.4,2.4,0,0,0,2.4-2.4V29.31a2.4,2.4,0,0,1,4.49-1.18l46.93,82.75a2.4,2.4,0,0,0,2.09,1.22h6.46a2.4,2.4,0,0,0,2.4-2.4V46.19H396a3,3,0,0,0,3-3V4.56A3,3,0,0,0,396,1.57ZM375.82,9.38a1.31,1.31,0,1,1,.87,2.48A3.68,3.68,0,0,0,374,15.34c0,2.74,2.43,4.31,6.8,4.31s6.8-1.57,6.8-4.31c0-1.81-.93-2.94-3-3.52a1.31,1.31,0,0,1-1-1.45v0a1.3,1.3,0,0,1,1.6-1.08A6,6,0,0,1,390,15.34c0,4.36-3.45,7-9.26,7s-9.26-2.61-9.26-7A6.23,6.23,0,0,1,375.82,9.38Zm-.54,16.2a1.3,1.3,0,0,1,1.79,1v0a1.28,1.28,0,0,1-.72,1.42A3.77,3.77,0,0,0,374,31.56c0,1.78,1,3,2.51,3,1.22,0,1.83-.89,2.61-3.78s1.81-6,5.54-6.07c3.32-.1,5.4,2.36,5.4,6.32a6.66,6.66,0,0,1-4.67,6.78,1.33,1.33,0,0,1-1.74-1v0a1.32,1.32,0,0,1,.94-1.45,4.16,4.16,0,0,0,3-4.25c0-2.43-1-3.65-2.94-3.65-1.6,0-2.21,1-3.13,4.21-1.19,4.16-2.51,5.64-5,5.64-2.89,0-5-2.39-5-5.69A6.43,6.43,0,0,1,375.28,25.58Z"/><path class="cls-2" d="M39.47,112.64a38.5,38.5,0,0,1,37.2-37.21Z"/><path class="cls-2" d="M75.4,76,40,111.37A38,38,0,0,1,75.4,76m2.5-1.08a39,39,0,0,0-38.95,39l39-38.95Z"/><path class="cls-1" d="M77.9,39A39,39,0,0,0,0,39v36a38.94,38.94,0,0,0,38.94,39h0A39,39,0,0,1,77.89,74.91h0Z"/></g></g></svg>