<?xml version="1.0" encoding="UTF-8"?>
<svg width="88px" height="40px" viewBox="0 0 88 40" version="1.1" xmlns="http://www.w3.org/2000/svg" xmlns:xlink="http://www.w3.org/1999/xlink">
    <!-- Generator: Sketch 55.1 (78136) - https://sketchapp.com -->
    <title>Shape</title>
    <desc>Created with Sketch.</desc>
    <g id="Page-1" stroke="none" stroke-width="1" fill="none" fill-rule="evenodd">
        <g id="up42" fill="#252A55" fill-rule="nonzero">
            <path d="M47.4644,24.7863 L42.5641,24.7863 C41.8804,24.7863 41.3676,24.2736 41.3676,23.5898 L41.3676,13.3333 C41.3676,12.6496 41.8804,12.1368 42.5641,12.1368 L47.4644,12.1368 C50.9403,12.1368 53.3904,14.9858 53.3904,18.4615 C53.3904,21.9373 50.9403,24.7863 47.4644,24.7863 Z M47.9773,4.04554 L35.1567,4.04554 C33.9032,4.04554 32.8206,5.12821 32.8206,6.38173 L32.8206,37.8348 C32.8206,38.9744 33.6752,40 34.8149,40 C35.9545,40 36.9801,39.2593 37.7779,38.4046 L41.5955,34.1311 C42.4502,33.1624 43.5898,32.8775 44.9003,32.8775 L47.9773,32.8775 C56.0115,32.8775 62.3362,26.4957 62.3362,18.4615 C62.3362,10.4274 56.0115,4.04554 47.9773,4.04554 Z M73.7323,14.6439 C73.2194,14.6439 72.8206,14.2451 72.8206,13.7323 L72.8206,12.3077 L66.6668,12.3077 C65.698,12.3077 65.4132,11.453 66.04,10.5983 L72.8776,0.854673 C73.4473,0.0569781 74.587,0.170935 74.587,1.3105 L74.587,10.4843 L76.1255,10.4843 C76.6382,10.4843 77.0372,10.8832 77.0372,11.3961 C77.0372,11.9089 76.6382,12.3077 76.1255,12.3077 L74.587,12.3077 L74.587,13.7323 C74.587,14.2451 74.1881,14.6439 73.7323,14.6439 Z M68.1482,10.4843 L72.8206,10.4843 L72.8206,3.8746 L68.1482,10.4843 Z M86.2109,14.6439 L79.2594,14.6439 C78.3477,14.6439 78.0059,13.7323 78.6326,12.8775 L83.8748,5.98288 C84.2736,5.47008 84.7864,4.67239 84.7864,3.98865 C84.7864,2.67806 83.8748,1.82339 82.5073,1.82339 C81.0258,1.82339 80.342,2.849 80.2281,3.53274 C80.1141,3.98865 79.6582,4.33043 79.1454,4.21656 C78.6895,4.15958 78.3477,3.64669 78.4616,3.19087 C78.7466,1.59539 80.285,0 82.5073,0 C84.7295,0 86.5528,1.76641 86.5528,3.98865 C86.5528,5.18519 85.983,6.09684 85.2993,7.00858 L80.8549,12.8205 L86.2109,12.8205 C86.7238,12.8205 87.1226,13.2194 87.1226,13.7323 C87.1226,14.2451 86.7238,14.6439 86.2109,14.6439 Z M14.359,34.587 C22.6781,34.587 28.718,28.4901 28.718,20.171 L28.718,6.38173 C28.718,5.07123 27.6924,4.04554 26.3818,4.04554 L21.7665,4.04554 C20.4559,4.04554 19.4303,5.07123 19.4303,6.38173 L19.4303,19.5441 C19.4303,22.963 17.7778,25.4701 14.359,25.4701 C10.9402,25.4701 9.2878,22.963 9.2878,19.5441 L9.2878,6.38173 C9.2878,5.07123 8.2621,4.04554 6.9516,4.04554 L2.33619,4.04554 C1.02561,4.04554 0,5.07123 0,6.38173 L0,20.171 C0,28.4901 6.03986,34.587 14.359,34.587 Z" id="Shape"></path>
        </g>
    </g>
</svg>