<svg viewBox="0 0 2000 525" xmlns="http://www.w3.org/2000/svg"><path d="m2000 0h-2000v525l2000-.16z" fill="none"/><path fill="#0F3C3E" d="m1844.94 307c.44 2.65-.88 3.76-2.21 3.76-1.11 0-2.22-.44-3.1-2.21l-92.56-195.08c-2-4.2-5.09-6-9.52-6h-99.64c-5.09 0-8 2.87-8 8v294c0 5.1 2.88 8 8 8h61.34c5.31 0 8.19-3.1 7.3-8.63l-28.78-195.52c-.66-3.76.89-4.87 2.44-4.87 1.32 0 2 .67 2.87 2.44l96.76 200.61c2 4.2 4.88 6 9.3 6h95.44c5.09 0 8-2.87 8-8v-294c0-5.1-2.88-8-8-8h-61.34c-5.31 0-8.19 3.1-7.3 8.63zm-370.43-191.52c0-5.1 2.88-8 8-8h91.67c5.09 0 8 2.87 8 8v294c0 5.1-2.88 8-8 8h-91.67c-5.09 0-8-2.87-8-8zm-211 131.08c-.89 2.65-2 3.76-3.77 3.76s-2.87-1.11-3.76-3.54l-48.71-132.85a9.3 9.3 0 0 0 -9.3-6.42h-104.74c-5.1 0-8 2.87-8 8v294c0 5.1 2.87 8 8 8h61.33c5.31 0 8.41-2.87 7.53-8.41l-29.45-201.49c-.44-3.54 4-4.43 5.31-1.11l76.39 204.59a9.3 9.3 0 0 0 9.3 6.42h27.46c4.65 0 7.75-2.21 9.08-6.64l64.43-199.28c1.33-4 5.76-3.1 5.53.89l-10.62 196.82c-.22 5.09 2.65 8.19 7.75 8.19h91.44c5.1 0 8-2.87 8-8v-294c0-5.1-2.87-8-8-8h-105.17c-4.65 0-7.53 2-8.86 6.64zm-380.18-58c.44-3.33 1.55-4.43 3.1-4.43s2.66 1.1 3.32 4.43l22.37 109.16c.44 2-.89 3.32-2.88 3.32h-37.88c-2 0-3.1-1.11-2.87-3.32zm88.35-74.4c-1.33-4.65-4.21-6.64-8.86-6.64h-90.35c-4.65 0-7.53 2-8.86 6.64l-89.67 294.26c-1.77 5.53 1.11 9.07 6.86 9.07h64c4.88 0 7.75-2.21 8.42-7.3l7.3-54.92a3.18 3.18 0 0 1 3.33-2.87h56.68c1.77 0 3.1.66 3.54 2.65l11.29 55.36c1.11 4.87 4.21 7.08 8.86 7.08h110.27c5.75 0 8.63-3.54 6.86-9.07zm-165.4 1.33c0-5.1-2.88-8-8-8h-241.28c-5.09 0-8 2.87-8 8v61.51c0 5.76 3.54 8.42 9.08 6.64l56.68-17.27c5.53-1.77 9.08.89 9.08 6.65v236.5c0 5.1 2.88 8 8 8h91.67c5.09 0 8-2.87 8-8v-236.47c0-5.76 3.54-8.42 9.08-6.65l56.68 17.27c5.53 1.78 9.08-.88 9.08-6.64zm-392.8 0c0-5.1 2.88-8 8-8h91.67c5.09 0 8 2.87 8 8v294c0 5.1-2.88 8-8 8h-91.71c-5.09 0-8-2.87-8-8zm-92.55-8c-4.88 0-7.75 2.43-8.42 7.52l-28.35 221.67c-.44 2.65-1.55 3.76-3.1 3.76s-2.66-1.11-3.1-3.76l-42.07-222.09c-.88-4.65-3.76-7.08-8.63-7.08h-112.71c-5.75 0-8.19 3.54-6.64 9.07l88.35 294.27c1.33 4.65 4.2 6.64 8.85 6.64h89.46c4.65 0 7.53-2 8.85-6.64l88.35-294.27c1.55-5.53-.89-9.07-6.64-9.07z"/></svg>