<svg fill="none" height="32" viewBox="0 0 125 32" width="125" xmlns="http://www.w3.org/2000/svg" xmlns:xlink="http://www.w3.org/1999/xlink"><mask id="a" height="32" maskUnits="userSpaceOnUse" width="125" x="0" y="0"><path d="m17.5209 0-4.8246 18.3334-4.36754-18.3334h-8.32876l8.1764 31.1821h7.4654l4.8754-18.2827 4.8246 18.2827h7.4654l8.2272-31.1821h-8.2272l-4.3168 18.3334-4.7738-18.3334z" fill="#9c9ffc"/><path d="m43.6911 0v31.1821h22.2946v-7.0592h-14.2706v-5.3832h13.0518v-6.856h-13.0518v-4.87535h14.2706v-7.00835z" fill="#9c9ffc"/><path d="m79.929 0-11.8837 31.1821h8.0748l2.1838-6.0435h11.3251l2.2345 6.0435h8.2775l-11.8832-31.1821zm4.0628 9.64917 3.1995 8.78583h-6.3989z" fill="#9c9ffc"/><path d="m102.858 31.1821h22.142v-7.0592h-13.966v-24.1229h-8.176z" fill="#9c9ffc"/></mask><g fill="#3d419e"><path d="m17.5209 0-4.8246 18.3334-4.36754-18.3334h-8.32876l8.1764 31.1821h7.4654l4.8754-18.2827 4.8246 18.2827h7.4654l8.2272-31.1821h-8.2272l-4.3168 18.3334-4.7738-18.3334z"/><path d="m43.6911 0v31.1821h22.2946v-7.0592h-14.2706v-5.3832h13.0518v-6.856h-13.0518v-4.87535h14.2706v-7.00835z"/><path d="m79.929 0-11.8837 31.1821h8.0748l2.1838-6.0435h11.3251l2.2345 6.0435h8.2775l-11.8832-31.1821zm4.0628 9.64917 3.1995 8.78583h-6.3989z"/><path d="m102.858 31.1821h22.142v-7.0592h-13.966v-24.1229h-8.176z"/></g><g mask="url(#a)"><path d="m-117.501.366886c34.6596 0 61.503 8.067554 84.5365 16.110314 3.2534 1.1361 6.4268 2.2697 9.5324 3.3792 18.93312 6.7637 35.3435 12.6262 51.9845 12.6262 9.6127 0 22.8335-3.5646 38.3344-8.9903 11.9017-4.1658 25.0673-9.3984 38.8762-14.88672 4.15-1.64919 12.606-4.99484 12.606-4.99484s76.5-29.00334 107.826-29.00334c28.515.0001 58.582 12.8936 87.182 25.675206 1.358.606948 2.713 1.213544 4.064 1.818464 27.214 12.18573 52.907 23.69073 74.862 23.69073" opacity=".8" stroke="#9c9ffc" stroke-width="6"/></g></svg>